<svg width="64" height="64" xmlns="http://www.w3.org/2000/svg">

 <title/>
 <g>
  <title>background</title>
  <rect fill="none" id="canvas_background" height="402" width="582" y="-1" x="-1"/>
 </g>
 <g>
  <title>Layer 1</title>
  <path stroke-width="3px" stroke-linejoin="round" stroke="#3ffd00" fill="none" id="svg_1" d="m49,19.154662l-34,0a14,14 0 1 0 12.635,20l8.73,0a13.995,13.995 0 1 0 12.635,-20z" class="cls-1"/>
  <polyline stroke-width="3px" stroke-linejoin="round" stroke="#3ffd00" fill="none" id="svg_2" points="28,19.15459183603525 28,15.154562272131443 36,15.154562272131443 36,19.15459183603525 " class="cls-1"/>
  <circle stroke-width="3px" stroke-linejoin="round" stroke="#3ffd00" fill="none" id="svg_3" r="10" cy="33.154662" cx="49" class="cls-1"/>
  <circle stroke-width="3px" stroke-linejoin="round" stroke="#3ffd00" fill="none" id="svg_4" r="10" cy="33.154662" cx="15" class="cls-1"/>
  <polygon stroke-width="3px" stroke-linejoin="round" stroke="#3ffd00" fill="none" id="svg_5" points="20,31.15484169870615 17,31.15484169870615 17,28.1547806635499 13,28.1547806635499 13,31.15484169870615 10,31.15484169870615 10,35.15486267954111 13,35.15486267954111 13,38.15486267954111 17,38.15486267954111 17,35.15486267954111 20,35.15486267954111 20,31.15484169870615 " class="cls-1"/>
  <circle stroke-width="3px" stroke-linejoin="round" stroke="#3ffd00" fill="none" id="svg_6" r="3" cy="33.154662" cx="49" class="cls-1"/>
  <line stroke-width="3px" stroke-linejoin="round" stroke="#3ffd00" fill="none" id="svg_7" y2="23.154662" y1="23.154662" x2="37" x1="27" class="cls-1"/>
  <line stroke-width="3px" stroke-linejoin="round" stroke="#3ffd00" fill="none" id="svg_8" y2="27.154662" y1="27.154662" x2="31" x1="29" class="cls-1"/>
  <line stroke-width="3px" stroke-linejoin="round" stroke="#3ffd00" fill="none" id="svg_9" y2="27.154662" y1="27.154662" x2="35" x1="33" class="cls-1"/>
  <rect stroke-width="3px" stroke-linejoin="round" stroke="#3ffd00" fill="none" id="svg_10" y="31.154662" x="29" width="6" height="4" class="cls-1"/>
  <line stroke-width="3px" stroke-linejoin="round" stroke="#3ffd00" fill="none" id="svg_15" y2="33.154662" y1="33.154662" x2="39" x1="46" class="cls-1"/>
  <line stroke-width="3px" stroke-linejoin="round" stroke="#3ffd00" fill="none" id="svg_16" y2="33.154662" y1="33.154662" x2="52" x1="59" class="cls-1"/>
  <line stroke-width="3px" stroke-linejoin="round" stroke="#3ffd00" fill="none" id="svg_17" y2="23.154662" y1="30.154662" x2="49" x1="49" class="cls-1"/>
  <line stroke-width="3px" stroke-linejoin="round" stroke="#3ffd00" fill="none" id="svg_18" y2="43.154662" y1="36.154662" x2="49" x1="49" class="cls-1"/>
 </g>
</svg>